<svg id="Слой_4" data-name="Слой 4" xmlns="http://www.w3.org/2000/svg" viewBox="0 0 22 40"><defs><style>.cls-1{fill:#fff;}</style></defs><path class="cls-1" d="M11,40a10.77,10.77,0,0,1-7.77-3.12A10.3,10.3,0,0,1,0,29.2V7.7A7.38,7.38,0,0,1,2.28,2.25,7.49,7.49,0,0,1,7.75,0a7.48,7.48,0,0,1,5.5,2.25,7.48,7.48,0,0,1,2.25,5.5v19.7a4.44,4.44,0,0,1-1.3,3.23A4.32,4.32,0,0,1,11,32a4.16,4.16,0,0,1-3.2-1.42A4.84,4.84,0,0,1,6.5,27.2V7.6h2V27.35a2.64,2.64,0,0,0,.73,1.88A2.34,2.34,0,0,0,11,30a2.39,2.39,0,0,0,1.78-.75,2.51,2.51,0,0,0,.72-1.8V7.7a5.49,5.49,0,0,0-1.67-4.05A5.61,5.61,0,0,0,7.75,2,5.57,5.57,0,0,0,3.68,3.65,5.46,5.46,0,0,0,2,7.7V29.3a8.22,8.22,0,0,0,2.65,6.18A8.89,8.89,0,0,0,11,38a8.82,8.82,0,0,0,6.38-2.55A8.37,8.37,0,0,0,20,29.2V7.6h2V29.15a10.35,10.35,0,0,1-3.22,7.7A10.74,10.74,0,0,1,11,40Z"/></svg>